<?xml version="1.0" encoding="UTF-8"?>
<svg width="1200pt" height="1200pt" version="1.1" viewBox="0 0 1200 1200" xmlns="http://www.w3.org/2000/svg">
 <g>
  <path d="m1160 380v-120c0-5.3047-2.1055-10.391-5.8594-14.141-3.75-3.7539-8.8359-5.8594-14.141-5.8594h-780v160h780c5.3047 0 10.391-2.1055 14.141-5.8594 3.7539-3.75 5.8594-8.8359 5.8594-14.141z"/>
  <path d="m80 520h200c10.609 0 20.781-4.2148 28.285-11.715 7.5-7.5039 11.715-17.676 11.715-28.285v-337.5c0.066406-13.828-7.0508-26.703-18.801-34l-100-62.5c-6.3672-3.9492-13.707-6.0391-21.199-6.0391s-14.832 2.0898-21.199 6.0391l-100 62.5c-11.75 7.2969-18.867 20.172-18.801 34v337.5c0 10.609 4.2148 20.781 11.715 28.285 7.5039 7.5 17.676 11.715 28.285 11.715zm0-320c0-7.1445 3.8125-13.746 10-17.32 6.1875-3.5742 13.812-3.5742 20 0 6.1875 3.5742 10 10.176 10 17.32v220c0 7.1445-3.8125 13.746-10 17.32-6.1875 3.5742-13.812 3.5742-20 0-6.1875-3.5742-10-10.176-10-17.32z"/>
  <path d="m1160 680v-80h-700c-5.3047 0-10.391 2.1055-14.141 5.8594-3.7539 3.75-5.8594 8.8359-5.8594 14.141v300c0.046875 41.676-14.387 82.078-40.832 114.29-26.445 32.215-63.258 54.238-104.15 62.312-4.3438 0.98047-8.2148 3.4414-10.953 6.9531-2.7383 3.5156-4.1758 7.8711-4.0664 12.324v44.121h640v-44c0.10938-4.457-1.3242-8.8125-4.0625-12.332s-6.6094-5.9805-10.957-6.9688c-40.859-8.1641-77.633-30.23-104.06-62.445-26.43-32.211-40.891-72.586-40.918-114.25 0-139.06 109.36-240 260-240z"/>
  <path d="m260 860h140v-220h-360c0.070312 58.328 23.27 114.25 64.512 155.49 41.242 41.242 97.16 64.441 155.49 64.512z"/>
 </g>
</svg>
